<svg width="960" height="265" xmlns="http://www.w3.org/2000/svg">
 <metadata id="metadata8">image/svg+xml</metadata>
 <defs>
  <clipPath clipPathUnits="userSpaceOnUse" id="clipPath16">
   <path d="m-38.400001,760.880002l841.89,0l0,-595.28l-841.89,0l0,595.28z" id="path18"/>
  </clipPath>
  <clipPath clipPathUnits="userSpaceOnUse" id="clipPath76">
   <path d="m-38.400001,760.880002l841.89,0l0,-595.28l-841.89,0l0,595.28z" id="path78"/>
  </clipPath>
  <clipPath clipPathUnits="userSpaceOnUse" id="clipPath106">
   <path d="m-38.400001,760.880002l841.89,0l0,-595.28l-841.89,0l0,595.28z" id="path108"/>
  </clipPath>
  <linearGradient x1="0.500002" y1="0.817489" x2="0.500002" y2="-0.14152" spreadMethod="pad" id="linearGradient64">
   <stop stop-color="#339cd7" offset="0" id="stop66"/>
   <stop stop-color="#325085" offset="1" id="stop68"/>
  </linearGradient>
  <linearGradient x1="0.499992" y1="1.842847" x2="0.499992" y2="-0.320071" spreadMethod="pad" id="linearGradient94">
   <stop stop-color="#339cd7" offset="0" id="stop96"/>
   <stop stop-color="#325085" offset="1" id="stop98"/>
  </linearGradient>
 </defs>
 <g>
  <title>background</title>
  <rect fill="none" id="canvas_background" height="267" width="962" y="-1" x="-1"/>
 </g>
 <g>
  <title>Layer 1</title>
  <g id="g10" transform="matrix(1.25,0,0,-1.25,0,744.1) ">
   <g id="g12">
    <g id="g14" clip-path="url(#clipPath16)">
     <g id="g20">
      <path fill="#379fd8" fill-rule="nonzero" d="m263.271691,476.385006c-16.563,0 -26.767,14.126 -26.767,30.199c0,16.075 10.619,30.496 26.767,30.496c16.655,0 26.751,-14.421 26.751,-30.496c0,-16.073 -10.476,-30.199 -26.751,-30.199m1.58,79.285c-11.446,0 -21.922,-4.399 -30.034,-11.592c0,0 -1.456,10.087 -9.551,10.087c-4.583,0 -8.304,-3.695 -8.304,-8.27c0,0 1.273,-7.608 1.273,-10.602l0,-29.18l0,-21.525l0,-48.542c0,-5.208 4.251,-9.433 9.486,-9.433c5.211,0 9.477,4.225 9.477,9.433l0,31.122c7.748,-6.049 17.282,-9.675 27.653,-9.675c25.677,0 46.44,22.016 46.44,49.091c0,27.072 -20.763,49.086 -46.44,49.086" id="path22"/>
     </g>
     <g id="g24">
      <path fill="#379fd8" fill-rule="nonzero" d="m471.466485,556.579891c-9.41,0 -17.728,-6.451 -24.458,-13.711c0,0 -3.086,12.091 -10.999,12.091c-4.897,0 -8.867,-3.96 -8.867,-8.856c0,0 1.026,-7.419 1.026,-10.098l0,-39.561l0,-16.043l0,-11.783c0,-5.237 4.27,-9.497 9.501,-9.497c6.973,0 10.51,4.26 10.51,9.497l0,40.232c0,24.84 15.349,28.885 24.23,28.885c5.229,0 9.584,4.712 9.584,9.972c0,5.226 -5.276,8.872 -10.527,8.872" id="path26"/>
     </g>
     <g id="g28">
      <path fill="#379fd8" fill-rule="nonzero" d="m729.202416,556.052303c-12.037,0 -20.918,-6.238 -27.318,-14.886c-6.195,9.113 -17.837,14.886 -30.003,14.886c-8.334,0 -15.776,-4.56 -21.907,-11.29c0,0 -2.403,11.422 -11.138,11.422c-4.951,0 -9.211,-3.971 -9.211,-8.865c0,0 1.325,-6.667 1.325,-10.452l0,-67.988c0,-5.246 3.937,-9.469 9.168,-9.469c5.987,0 10.398,4.223 10.398,9.469l0,51.281c0,13.016 9.621,18.153 18.621,18.153c8.891,0 18.509,-4.548 18.509,-18.746l0,-50.688c0,-5.246 4.253,-9.469 9.473,-9.469l0.109,0l0.092,0c6.216,0 10.548,4.223 10.548,9.469l0,51.281c0,13.016 9.617,18.153 18.508,18.153c8.946,0 18.557,-4.548 18.557,-18.746l0,-50.688c0,-5.246 3.722,-9.469 10.336,-9.469c5.262,0 9.484,4.223 9.484,9.469l0,53.268c0,19.352 -16.215,33.905 -35.551,33.905" id="path30"/>
     </g>
     <g id="g32">
      <path fill="#379fd8" fill-rule="nonzero" d="m536.066674,473.011013c6.216,-9.128 17.715,-14.907 29.905,-14.907c9.737,0 21.764,5.992 27.912,12.707c0,0 2.439,-11.007 11.248,-11.007c4.881,0 9.141,3.975 9.141,8.867l-1.029,9.012l0,67.552c0,5.235 -3.943,9.445 -9.192,9.445c-7.186,0 -10.646,-4.21 -10.646,-9.445l0,-51.235c0,-13.019 -15.738,-18.145 -24.656,-18.145c-8.932,0 -18.591,4.547 -18.591,18.772l0,50.608c0,5.235 -3.656,9.445 -10.363,9.445l-0.123,0l-0.065,0c-5.268,0 -9.494,-4.21 -9.494,-9.445l0,-51.235c0,-12 5.953,-20.989 5.953,-20.989" id="path34"/>
     </g>
     <g id="g36">
      <path fill="#379fd8" fill-rule="nonzero" d="m502.883386,459.365109c-5.602,0 -10.114,4.268 -10.114,9.466l0,76.404c0,5.194 4.512,9.445 10.114,9.445c5.566,0 10.065,-4.251 10.065,-9.445l0,-76.404c0,-5.198 -4.499,-9.466 -10.065,-9.466" id="path38"/>
     </g>
     <g id="g40">
      <path fill="#379fd8" fill-rule="nonzero" d="m514.675317,581.9165c0,-6.547 -5.292,-11.817 -11.792,-11.817c-6.543,0 -11.883,5.27 -11.883,11.817c0,6.551 5.34,11.825 11.883,11.825c6.5,0 11.792,-5.274 11.792,-11.825" id="path42"/>
     </g>
     <g id="g44">
      <path fill="#379fd8" fill-rule="nonzero" d="m342.285485,516.328304l55.389,0c-2.01,7.838 -8.782,21.779 -28.995,21.779c-18.059,0 -24.847,-13.761 -26.394,-21.779m-19.896,-9.588c0.231,26.604 19.464,48.888 46.29,48.888c25.423,0 45.588,-18.969 47.169,-45.39l0,-0.943c0,-0.397 0,-1.404 -0.198,-1.786c-0.578,-4.712 -4.682,-7.847 -10.189,-7.847l-62.233,0c1.016,-4.505 3.143,-9.568 6.656,-12.89c4.128,-4.723 11.972,-8.223 18.795,-8.815c7.071,-0.582 15.483,1.172 20.369,4.87c4.093,4.309 12.15,3.736 14.661,0.594c2.569,-2.735 4.55,-8.593 0,-12.71c-9.607,-8.815 -21.163,-12.938 -35.03,-12.938c-26.826,0.241 -46.059,22.35 -46.29,48.967" id="path46"/>
     </g>
     <g id="g48">
      <path fill="#379fd8" fill-rule="nonzero" d="m20.708001,516.328304l55.356,0c-1.969,7.838 -8.757,21.779 -28.975,21.779c-18.053,0 -24.843,-13.761 -26.381,-21.779m-19.911,-9.588c0.209,26.604 19.499,48.888 46.292,48.888c25.433,0 45.622,-18.969 47.159,-45.39l0,-0.943c0,-0.397 0,-1.404 -0.182,-1.786c-0.589,-4.712 -4.688,-7.847 -10.212,-7.847l-62.2,0c0.99,-4.505 3.149,-9.568 6.646,-12.89c4.119,-4.723 11.957,-8.223 18.789,-8.815c7.096,-0.582 15.478,1.172 20.374,4.87c4.102,4.309 12.107,3.736 14.653,0.594c2.565,-2.735 4.532,-8.593 0,-12.71c-9.594,-8.815 -21.136,-12.938 -35.027,-12.938c-26.793,0.241 -46.083,22.35 -46.292,48.967" id="path50"/>
     </g>
    </g>
   </g>
   <g id="g52">
    <g id="g54">
     <g id="g60">
      <g id="g62">
       <path fill="url(#linearGradient64)" d="m105.022999,553.379002c-7.41,-6.822 2.812,-18.847 7.436,-24.219l0,0c8.548,-9.262 18.588,-14.365 18.635,-25.073l0,0c0.086,-10.685 -13.999,-21.187 -26.849,-28.644l0,0c-5.838,-2.953 -10.337,-8.861 -5.674,-15.006l0,0c6.303,-8.239 19.543,1.789 25.687,5.127l0,0c33.573,18.344 48.505,33.651 68.866,68.54l0,0c3.34,6.12 10.815,15.48 1.257,20.259l0,0c-7.567,2.085 -9.966,-4.166 -13.149,-9.103l0,0c-7.443,-11.686 -17.629,-17.523 -31.224,-16.969l0,0c-15.465,0.587 -24.658,7.798 -32.913,21.938l0,0c-1.538,3.068 -4.582,4.912 -7.542,4.913l0,0c-1.622,0 -3.219,-0.554 -4.53,-1.763" id="path70"/>
      </g>
     </g>
    </g>
   </g>
   <g id="g72">
    <g id="g74" clip-path="url(#clipPath76)">
     <path fill="#379fd8" fill-rule="nonzero" d="m201.267999,450.200002l-36.74,0l0,6.802l36.74,0l0,-6.802z" id="path80"/>
    </g>
   </g>
   <g id="g82">
    <g id="g84">
     <g id="g90">
      <g id="g92">
       <path fill="url(#linearGradient94)" d="m176.205999,499.273002c-5.923,-6.804 -12.223,-12.848 -18.674,-17.977l0,0c5.672,-2.545 10.138,-4.714 13.993,-8.046l0,0c5.26,-4.521 5.589,-7.144 9.029,-11.97l0,0c2.73,-3.867 7.915,-5.161 12.008,-2.79l0,0c3.009,1.75 4.681,5.204 3.705,9.13l0,0l-0.959,2.844c-4.417,9.445 -9.991,19.085 -17.192,28.941l0,0l-0.895,1.29l-1.015,-1.422z" id="path100"/>
      </g>
     </g>
    </g>
   </g>
   <g id="g102">
    <g id="g104" clip-path="url(#clipPath106)">
     <g id="g110">
      <path fill="#339cd7" fill-rule="evenodd" d="m151.893197,541.644314c8.6,0 15.662,7.022 15.662,15.613c0,8.635 -7.062,15.63 -15.662,15.63c-8.565,0 -15.613,-6.995 -15.613,-15.63c0,-8.591 7.048,-15.613 15.613,-15.613" id="path112"/>
     </g>
     <g id="g114">
      <path fill="#373535" fill-rule="nonzero" d="m492.718102,395.286907l-4.696,0l3.987,18.64l-16.177,0l-4.001,-18.64l-4.696,0l8.311,39.207l4.704,0l-3.664,-17.276l16.184,0l3.664,17.276l4.703,0l-8.319,-39.207z" id="path116"/>
     </g>
     <g id="g118">
      <path fill="#373535" fill-rule="nonzero" d="m516.768273,431.324215c-2.291,0 -4.271,-0.378 -4.271,-0.378l-3.336,-15.15l3.565,0c8.257,0 10.988,5.358 10.988,9.574c0,4.202 -2.465,5.954 -6.946,5.954m0.327,-17.934l-0.058,-0.226c1.203,-0.923 1.813,-1.52 3.121,-5.738l3.82,-12.139l-4.913,0l-3.391,11.105c-1.254,4.162 -2.076,6.394 -4.816,6.394l-2.245,0l-3.705,-17.499l-4.713,0l8.261,38.775c0,0 3.449,0.658 8.741,0.658c9.246,0 11.495,-4.72 11.495,-9.35c0,-4.928 -3.176,-10.552 -11.597,-11.98" id="path120"/>
     </g>
     <g id="g122">
      <path fill="#373535" fill-rule="nonzero" d="m563.835229,395.286907l-4.7,0l6.953,32.969c-0.832,-1.693 -18.161,-29.693 -18.161,-29.693l-2.406,0l-5.634,29.693l-6.897,-32.969l-3.705,0l8.306,39.207l5.687,0l5.358,-28.939l17.452,28.939l6.066,0l-8.319,-39.207z" id="path124"/>
     </g>
     <g id="g126">
      <path fill="#373535" fill-rule="nonzero" d="m631.345971,410.270107c-3.231,-6.563 -4.822,-9.731 -8.584,-16.175c-4.052,-6.892 -7.443,-10.83 -12.859,-10.83c-1.042,0 -2.842,0.261 -3.71,0.76l1.693,3.934c0,0 1.581,-0.486 3.545,-0.486c1.639,0 3.612,0.393 4.867,2.184c0.824,1.149 1.424,2.901 1.424,4.438c0,3.708 -0.763,9.132 -1.639,14.968c-0.927,6.188 -1.902,11.331 -2.516,13.133l4.98,0c0.435,-1.654 0.923,-4.872 1.635,-9.744c0.76,-5.345 1.373,-10.927 1.701,-14.479c2.566,4.642 4.699,8.752 7.048,15.365c1.209,3.383 2.3,6.55 2.845,8.858l4.863,0c0,0 -2.399,-6.022 -5.293,-11.926" id="path128"/>
     </g>
     <g id="g130">
      <path fill="#373535" fill-rule="nonzero" d="m655.655725,416.340801c-2.082,2.249 -4.43,3.12 -6.448,3.12c-1.687,0 -5.084,-0.556 -5.084,-4.162c0,-1.909 1.912,-2.614 4.702,-4.208c3.878,-2.24 6.502,-3.12 6.502,-7.152c0,-5.643 -4.485,-9.408 -11.917,-9.408c-3.333,0 -6.84,0.988 -8.745,3.381l3.213,3.448c1.375,-1.915 3.505,-3.609 6.731,-3.609c1.916,0 5.913,0.765 5.913,5.476c0,2.942 -2.689,3.548 -5.749,5.076c-3.712,1.87 -5.405,3.342 -5.405,6.392c0,5.367 4.755,7.932 10.5,7.932c2.453,0 5.193,-0.663 7.709,-1.952l-1.922,-4.334z" id="path132"/>
     </g>
     <g id="g134">
      <path fill="#373535" fill-rule="nonzero" d="m607.851525,416.340801c-2.082,2.249 -4.433,3.12 -6.447,3.12c-1.69,0 -5.082,-0.556 -5.082,-4.162c0,-1.909 1.902,-2.614 4.701,-4.208c3.887,-2.24 6.501,-3.12 6.501,-7.152c0,-5.643 -4.481,-9.408 -11.91,-9.408c-3.34,0 -6.847,0.988 -8.748,3.381l3.206,3.448c1.374,-1.915 3.507,-3.609 6.734,-3.609c1.915,0 5.92,0.765 5.92,5.476c0,2.942 -2.699,3.548 -5.756,5.076c-3.705,1.87 -5.408,3.342 -5.408,6.392c0,5.367 4.76,7.932 10.503,7.932c2.464,0 5.193,-0.663 7.705,-1.952l-1.919,-4.334z" id="path136"/>
     </g>
     <g id="g138">
      <path fill="#373535" fill-rule="nonzero" d="m676.535913,418.690106l-6.458,0l-3.057,-14.323c-0.266,-1.314 -0.44,-2.345 -0.44,-3.225c0,-2.129 1.206,-3.057 3.285,-3.057c0.757,0 2.847,0.317 3.936,0.708l-0.218,-2.686c-1.537,-0.714 -4.263,-1.25 -5.749,-1.25c-4.798,0 -5.63,2.894 -5.63,5.3c0,1.865 0.287,3.597 0.498,4.642l2.951,13.891l-4.209,0l0.491,2.414c2.686,0.539 4.983,2.788 6.397,5.839l1.966,4.275l2.857,0.586l-2.035,-9.608l6.178,0l-0.763,-3.506z" id="path140"/>
     </g>
     <g id="g142">
      <path fill="#373535" fill-rule="nonzero" d="m693.050988,419.40231c-1.755,0 -5.579,-0.812 -7.989,-7.708l6.568,0.48c2.777,0.23 5.575,1.101 5.575,4.449c0,1.305 -0.88,2.779 -4.154,2.779m-0.379,-9.959l-8.37,-0.534c0,0 -0.497,-1.648 -0.497,-3.17c0,-6.236 2.952,-7.337 5.633,-7.337c1.694,0 4.053,0.658 7.767,3.4l0.978,-2.907c-4.587,-3.226 -6.935,-4.164 -10.988,-4.164c-4.317,0 -8.093,2.972 -8.093,9.588c0,13.279 10.013,18.307 14.603,18.307c7.055,0 8.145,-3.654 8.145,-6.003c0,-4.647 -3.391,-6.783 -9.178,-7.18" id="path144"/>
     </g>
     <g id="g146">
      <path fill="#373535" fill-rule="nonzero" d="m740.059411,413.338009l-3.823,-18.051l-4.434,0l3.497,16.564c0.221,0.983 0.439,2.405 0.439,3.4c0,2.026 -0.382,3.274 -2.566,3.274c-4.215,0 -8.534,-7.71 -10.384,-16.79l-1.322,-6.448l-4.417,0l3.159,14.936c0.331,1.571 0.61,3.606 0.61,4.539c0,2.341 -0.378,3.763 -2.579,3.763c-3.705,0 -8.251,-7.213 -10.221,-16.79l-1.305,-6.448l-4.434,0l2.893,13.728c2.301,10.997 2.465,12.743 2.465,12.743l4.433,0.438l-1.043,-6.4l0.164,0c3.772,5.962 7.105,6.88 9.729,6.88c3.068,0 4.158,-2.408 4.158,-5.508c0,-0.779 -0.058,-1.644 -0.163,-2.529l0.269,0c3.343,6.233 7.443,8.037 10.554,8.037c3.009,0 4.761,-1.804 4.761,-5.293c0,-1.092 -0.106,-2.464 -0.44,-4.045" id="path148"/>
     </g>
     <g id="g150">
      <path fill="#373535" fill-rule="nonzero" d="m762.84591,416.340801c-2.09,2.249 -4.435,3.12 -6.448,3.12c-1.708,0 -5.098,-0.556 -5.098,-4.162c0,-1.909 1.918,-2.614 4.706,-4.208c3.879,-2.24 6.506,-3.12 6.506,-7.152c0,-5.643 -4.478,-9.408 -11.918,-9.408c-3.337,0 -6.833,0.988 -8.755,3.381l3.237,3.448c1.36,-1.915 3.497,-3.609 6.721,-3.609c1.918,0 5.902,0.765 5.902,5.476c0,2.942 -2.678,3.548 -5.738,5.076c-3.722,1.87 -5.409,3.342 -5.409,6.392c0,5.367 4.748,7.932 10.497,7.932c2.453,0 5.19,-0.663 7.704,-1.952l-1.907,-4.334z" id="path152"/>
     </g>
    </g>
   </g>
  </g>
 </g>
</svg>